<svg xmlns="http://www.w3.org/2000/svg" xmlns:xlink="http://www.w3.org/1999/xlink" width="449" height="451" viewBox="0 0 449 451">
  <defs>
    <clipPath id="clip-Web_1920_1">
      <rect width="449" height="451"/>
    </clipPath>
  </defs>
  <g id="Web_1920_1" data-name="Web 1920 – 1" clip-path="url(#clip-Web_1920_1)">
    <path id="plus" d="M416,208H272V64a32,32,0,0,0-32-32H208a32,32,0,0,0-32,32V208H32A32,32,0,0,0,0,240v32a32,32,0,0,0,32,32H176V448a32,32,0,0,0,32,32h32a32,32,0,0,0,32-32V304H416a32,32,0,0,0,32-32V240A32,32,0,0,0,416,208Z" transform="translate(1 -30)" fill="#fff"/>
  </g>
</svg>
